<svg width="40" height="40" viewBox="0 0 40 40" fill="none" xmlns="http://www.w3.org/2000/svg">
<path d="M20.8262 20.9081C21.4892 20.9081 22.125 21.1954 22.5939 21.7068C23.0627 22.2182 23.3261 22.9119 23.3261 23.6351L23.3244 24.995C23.4961 28.3347 21.1378 30 16.7664 30C12.4099 29.9982 10 28.3565 10 25.0441V23.6351C10 22.9119 10.2634 22.2182 10.7322 21.7068C11.201 21.1954 11.8369 20.9081 12.4999 20.9081H20.8262ZM27.4925 20.9081C28.1555 20.9081 28.7914 21.1954 29.2602 21.7068C29.729 22.2182 29.9924 22.9119 29.9924 23.6351V24.5932C30.1424 27.5875 28.0592 29.0892 24.2527 29.0892C23.736 29.0892 23.2494 29.0619 22.7961 29.0074C23.2794 28.5201 23.641 27.9402 23.871 27.2657L24.2527 27.2712C27.2259 27.2712 28.4142 26.4149 28.3258 24.6423V23.6351C28.3258 23.394 28.238 23.1628 28.0818 22.9924C27.9255 22.8219 27.7135 22.7261 27.4925 22.7261H24.0544C23.8871 22.0219 23.5301 21.3886 23.0294 20.9081H27.4925V20.9081ZM20.8262 22.7261H12.4999C12.2789 22.7261 12.0669 22.8219 11.9107 22.9924C11.7544 23.1628 11.6666 23.394 11.6666 23.6351V25.0441C11.6666 27.1257 13.2132 28.1802 16.7664 28.1802C20.3062 28.1802 21.7661 27.1493 21.6595 25.0441V23.6351C21.6595 23.394 21.5717 23.1628 21.4154 22.9924C21.2591 22.8219 21.0472 22.7261 20.8262 22.7261V22.7261ZM16.6664 10C17.7714 10 18.8311 10.4789 19.6125 11.3312C20.3939 12.1836 20.8328 13.3396 20.8328 14.545C20.8328 15.7505 20.3939 16.9065 19.6125 17.7589C18.8311 18.6112 17.7714 19.0901 16.6664 19.0901C15.5613 19.0901 14.5016 18.6112 13.7202 17.7589C12.9389 16.9065 12.4999 15.7505 12.4999 14.545C12.4999 13.3396 12.9389 12.1836 13.7202 11.3312C14.5016 10.4789 15.5613 10 16.6664 10V10ZM24.9993 11.818C25.8833 11.818 26.7311 12.2011 27.3562 12.883C27.9813 13.5649 28.3325 14.4897 28.3325 15.454C28.3325 16.4184 27.9813 17.3432 27.3562 18.0251C26.7311 18.707 25.8833 19.0901 24.9993 19.0901C24.1153 19.0901 23.2675 18.707 22.6424 18.0251C22.0173 17.3432 21.6661 16.4184 21.6661 15.454C21.6661 14.4897 22.0173 13.5649 22.6424 12.883C23.2675 12.2011 24.1153 11.818 24.9993 11.818ZM16.6664 11.818C16.0034 11.818 15.3675 12.1053 14.8987 12.6167C14.4299 13.1282 14.1665 13.8218 14.1665 14.545C14.1665 15.2683 14.4299 15.9619 14.8987 16.4733C15.3675 16.9848 16.0034 17.2721 16.6664 17.2721C17.3294 17.2721 17.9652 16.9848 18.4341 16.4733C18.9029 15.9619 19.1663 15.2683 19.1663 14.545C19.1663 13.8218 18.9029 13.1282 18.4341 12.6167C17.9652 12.1053 17.3294 11.818 16.6664 11.818ZM24.9993 13.636C24.5573 13.636 24.1334 13.8276 23.8209 14.1685C23.5083 14.5095 23.3327 14.9719 23.3327 15.454C23.3327 15.9362 23.5083 16.3986 23.8209 16.7396C24.1334 17.0805 24.5573 17.2721 24.9993 17.2721C25.4413 17.2721 25.8652 17.0805 26.1778 16.7396C26.4903 16.3986 26.6659 15.9362 26.6659 15.454C26.6659 14.9719 26.4903 14.5095 26.1778 14.1685C25.8652 13.8276 25.4413 13.636 24.9993 13.636V13.636Z" fill="black"/>
</svg>
