<svg width="40" height="40" viewBox="0 0 40 40" fill="none" xmlns="http://www.w3.org/2000/svg">
<path d="M19.7026 11.806C19.6389 11.7442 19.5513 11.7112 19.4634 11.7152C18.8899 11.7377 18.3181 11.8181 17.7642 11.9547L17.9207 12.5892C18.3223 12.4902 18.7341 12.4233 19.1494 12.3889V18.5687H12.1325C12.2184 18.1635 12.3367 17.7648 12.4854 17.3789L11.876 17.1437C11.6646 17.6913 11.51 18.2631 11.4166 18.8431C11.4012 18.9379 11.4283 19.034 11.4904 19.1072C11.5525 19.1804 11.6433 19.2222 11.7391 19.2222H19.4761C19.6568 19.2222 19.8029 19.0758 19.8029 18.8954V12.0416C19.8029 11.9527 19.7669 11.8678 19.7026 11.806Z" fill="black"/>
<path d="M26.5993 15.099L26.0765 15.4914C27.1029 16.8569 27.6453 18.4839 27.6453 20.1968C27.6453 20.301 27.6427 20.4092 27.6375 20.5235H21.1101V12.4653C21.6293 12.5525 22.1384 12.6917 22.6282 12.8809L22.8638 12.2715C22.2093 12.0186 21.5224 11.8477 20.8225 11.764C20.7281 11.7529 20.6366 11.7823 20.5667 11.8441C20.4964 11.9058 20.4565 11.9947 20.4565 12.0885V20.8503C20.4565 21.0307 20.6026 21.1771 20.7833 21.1771H27.9436C28.1139 21.1771 28.2557 21.046 28.2694 20.8764C28.2894 20.6281 28.2988 20.4059 28.2988 20.1968C28.2988 18.3411 27.711 16.5785 26.5993 15.099Z" fill="black"/>
<path d="M19.4752 19.875H11.6329C11.4522 19.875 11.3062 20.0214 11.3062 20.2018C11.3062 20.6582 11.3424 21.1154 11.4143 21.5611L12.0597 21.4572C12.0103 21.152 11.9793 20.8409 11.9665 20.5285H19.1484V28.0153C18.5155 27.963 17.8937 27.8349 17.2947 27.633L17.0859 28.2525C17.8509 28.5103 18.6501 28.6574 19.4621 28.6891C19.4664 28.6891 19.4706 28.6894 19.4749 28.6894C19.5592 28.6894 19.6405 28.6567 19.7013 28.5982C19.766 28.5365 19.802 28.4515 19.802 28.3626V20.2018C19.802 20.0214 19.6559 19.875 19.4752 19.875Z" fill="black"/>
<path d="M27.9904 21.9575C27.9289 21.8781 27.8342 21.832 27.7339 21.832H20.7833C20.6026 21.832 20.4565 21.9784 20.4565 22.1588V28.3065C20.4565 28.3999 20.4964 28.4888 20.5663 28.5509C20.6268 28.6045 20.7039 28.6333 20.7833 28.6333C20.796 28.6333 20.8091 28.6326 20.8222 28.631C21.164 28.5901 21.5071 28.5277 21.8417 28.4454L21.6852 27.8108C21.4956 27.8575 21.3032 27.8974 21.1097 27.9297V22.4856H27.3045C27.2819 22.5601 27.2581 22.6342 27.2333 22.7081L27.8525 22.9169C27.9283 22.6921 27.9953 22.4633 28.0505 22.2372C28.0747 22.1398 28.0524 22.0366 27.9904 21.9575Z" fill="black"/>
<path d="M17.4489 13.2072C17.4485 13.2068 17.4482 13.2068 17.4479 13.2068C16.9907 12.8637 16.4493 12.6824 15.8817 12.6824C15.7834 12.6824 15.6834 12.6899 15.5811 12.7026C15.2625 12.0517 14.7122 11.5351 14.0365 11.2623C14.3057 10.9767 14.6439 10.7516 15.0161 10.6117L14.7864 10C14.3168 10.1761 13.8901 10.4611 13.5516 10.8234C13.4732 10.9074 13.4036 10.9927 13.3389 11.0786C13.2081 11.061 13.0761 11.0486 12.9409 11.0486C11.3191 11.0486 10 12.368 10 13.9894C10 15.6108 11.3191 16.9303 12.9409 16.9303C13.2229 16.9303 13.495 16.8881 13.7535 16.8136C14.127 17.3365 14.6831 17.7073 15.3145 17.8472C15.3148 17.8472 15.3148 17.8475 15.3151 17.8475C15.5046 17.8893 15.6955 17.9106 15.8817 17.9106C16.5039 17.9106 17.108 17.6864 17.5822 17.2799C17.5825 17.2796 17.5825 17.2796 17.5828 17.2793C18.1628 16.7813 18.4958 16.0585 18.4958 15.2965C18.4958 14.4685 18.1141 13.7071 17.4489 13.2072ZM12.9409 16.2768C11.6799 16.2768 10.6535 15.2507 10.6535 13.9894C10.6535 12.7281 11.6799 11.7021 12.9409 11.7021C12.9497 11.7021 12.9578 11.7034 12.9667 11.7034C12.8389 11.9874 12.7677 12.2537 12.7285 12.4693L13.3712 12.5866C13.4101 12.3736 13.4882 12.0991 13.6414 11.8129C14.3057 12.0272 14.8361 12.5376 15.0805 13.1879C15.1037 13.25 15.1243 13.3124 15.1419 13.3751C15.1442 13.3833 15.1462 13.3915 15.1481 13.3996C15.1635 13.4565 15.1769 13.5133 15.188 13.5709C15.1926 13.596 15.1958 13.6215 15.1998 13.6467C15.2063 13.6891 15.2132 13.7316 15.2174 13.7744C15.2239 13.845 15.2282 13.9169 15.2282 13.9894C15.2282 14.1577 15.2076 14.3322 15.1668 14.508C14.9305 15.52 14.0234 16.2768 12.9409 16.2768ZM15.1436 17.112C14.8469 16.9911 14.5851 16.7976 14.3789 16.5519C14.8616 16.28 15.2609 15.8775 15.5259 15.3906L15.1436 17.112ZM17.8152 14.9697H16.5352L17.3021 13.9476C17.5734 14.2309 17.7511 14.5845 17.8152 14.9697ZM16.7793 13.5548L16.4937 13.9355L15.9226 14.6969L15.8298 14.5296V14.5292C15.8461 14.4417 15.8595 14.3531 15.8677 14.2629C15.8768 14.1714 15.8817 14.0799 15.8817 13.9894C15.8817 13.8813 15.8748 13.7748 15.8634 13.6695C15.8618 13.6542 15.8585 13.6391 15.8566 13.6238C15.8448 13.5294 15.8288 13.4362 15.8082 13.3447C15.8079 13.3424 15.8075 13.3402 15.8069 13.3375C16.1572 13.3222 16.481 13.4 16.7793 13.5548ZM15.7814 17.2544L16.0588 16.0056L16.8908 16.976C16.5588 17.1757 16.1748 17.2747 15.7814 17.2544ZM17.3868 16.5503L16.5924 15.6232H17.8148C17.757 15.9641 17.6093 16.284 17.3868 16.5503Z" fill="black"/>
<path d="M22.7446 16.2812H22.0911V16.9348H22.7446V16.2812Z" fill="black"/>
<path d="M24.0507 16.9336H23.3972V17.5871H24.0507V16.9336Z" fill="black"/>
<path d="M25.3571 19.2188H24.7036V19.8723H25.3571V19.2188Z" fill="black"/>
<path d="M22.7446 18.8906H22.0911V19.5441H22.7446V18.8906Z" fill="black"/>
<path d="M22.4165 17.582H21.7629V18.2356H22.4165V17.582Z" fill="black"/>
<path d="M26.9917 17.9102H26.3381V18.5637H26.9917V17.9102Z" fill="black"/>
<path d="M25.3574 16.6055H24.7039V17.259H25.3574V16.6055Z" fill="black"/>
<path d="M24.051 18.2383H23.3975V18.8918H24.051V18.2383Z" fill="black"/>
<path d="M25.3571 17.9102H24.7036V18.5637H25.3571V17.9102Z" fill="black"/>
<path d="M29.6063 10.3941C28.7548 10.3941 27.9438 10.6156 27.2138 10.9966C27.1501 10.8516 27.0635 10.7127 26.9455 10.5947C26.5014 10.151 25.6829 10.3804 25.5908 10.4078C25.4859 10.4395 25.4035 10.5215 25.3718 10.6264C25.3444 10.7182 25.1147 11.5368 25.5591 11.9812C25.6104 12.0321 25.6659 12.0759 25.7224 12.1168C25.5084 12.3416 25.3143 12.587 25.1353 12.8448C25.0902 12.7794 25.0425 12.7154 24.9849 12.6579C24.5543 12.2275 23.7501 12.3749 23.6596 12.3935C23.5387 12.418 23.442 12.5086 23.409 12.6275C23.3649 12.7886 23.1672 13.613 23.5985 14.0443C23.8151 14.2603 24.0873 14.3816 24.3569 14.4054C24.1622 14.9965 24.0514 15.6249 24.0514 16.2758H24.7049C24.7049 15.8062 24.7748 15.3481 24.8957 14.908C25.0761 15.0099 25.2901 15.071 25.5218 15.071C26.1466 15.071 26.5769 14.3345 26.624 14.2502C26.6792 14.1512 26.6792 14.0303 26.624 13.931C26.5828 13.8574 26.2489 13.2856 25.7483 13.1428C25.9489 12.8673 26.1731 12.6125 26.4181 12.3815C26.5848 12.7474 26.9978 13.0082 27.4824 13.0082C28.1072 13.0082 28.5375 12.2717 28.5846 12.1874C28.6398 12.0883 28.6398 11.9674 28.5846 11.8681C28.5565 11.8178 28.3888 11.5348 28.1264 11.3149C28.5979 11.1437 29.0956 11.0476 29.6063 11.0476V10.3941V10.3941ZM24.7043 13.5614C24.6781 13.6127 24.6562 13.6663 24.6314 13.7186C24.6128 13.7235 24.5938 13.7277 24.5762 13.7359C24.4527 13.7918 24.2363 13.7574 24.0609 13.582C23.973 13.4941 23.9677 13.2363 23.9988 13.0098C24.1997 13.0007 24.4278 13.0248 24.5229 13.1199C24.6461 13.2431 24.7154 13.4059 24.7036 13.5447C24.7033 13.5503 24.7046 13.5558 24.7043 13.5614ZM25.9473 14.0907C25.8202 14.2571 25.6476 14.4175 25.5218 14.4175C25.3539 14.4175 25.2003 14.3541 25.1111 14.2678C25.1787 14.1054 25.2545 13.9473 25.3369 13.7927C25.3957 13.7751 25.4574 13.764 25.5218 13.764C25.6479 13.764 25.8202 13.9244 25.9473 14.0907ZM26.2263 11.6531C26.1567 11.6243 26.0865 11.5845 26.0214 11.5191C25.9332 11.4309 25.928 11.1982 25.959 10.995C26.1508 10.9666 26.391 10.9643 26.4835 11.0568C26.5652 11.1385 26.6201 11.2375 26.6465 11.3355C26.5018 11.4345 26.3619 11.5407 26.2263 11.6531ZM27.4824 12.3547C27.2213 12.3547 26.9922 12.2021 26.9916 12.0465C26.9926 12.0406 26.9968 12.0138 26.9975 12.008C27.0014 11.9753 26.9991 11.9429 26.9932 11.9112C27.0645 11.8612 27.137 11.8135 27.2102 11.7671C27.2932 11.7269 27.3847 11.7011 27.4824 11.7011C27.6085 11.7011 27.7807 11.8616 27.9078 12.0279C27.7807 12.1942 27.6082 12.3547 27.4824 12.3547Z" fill="black"/>
<path d="M17.4462 23.2269C17.492 23.0939 17.5155 22.9537 17.5155 22.811C17.5155 22.0901 16.9293 21.5039 16.2085 21.5039C15.8102 21.5039 15.4393 21.6892 15.1955 21.9901C14.9217 21.8408 14.5943 21.7931 14.2874 21.863C13.9986 21.63 13.6431 21.5039 13.2676 21.5039C12.3667 21.5039 11.6338 22.2368 11.6338 23.1377C10.913 23.1377 10.3268 23.7239 10.3268 24.4448C10.3268 24.666 10.3817 24.878 10.4849 25.0666C10.1846 25.3104 10 25.6806 10 26.0786C10 26.7994 10.5862 27.3856 11.307 27.3856C11.7795 27.3856 12.1949 27.1334 12.4242 26.7563L12.9533 27.8143L13.2722 29.7265C13.2983 29.884 13.4346 29.9997 13.5944 29.9997H16.2085C16.3892 29.9997 16.5352 29.8533 16.5352 29.673V27.7395L16.8574 25.8057C16.8604 25.7878 16.862 25.7698 16.862 25.7518C17.7629 25.7518 18.4958 25.1656 18.4958 24.4448C18.4958 23.8906 18.0628 23.4148 17.4462 23.2269ZM16.862 25.0983C16.7849 25.0983 16.7045 25.0888 16.6016 25.0676C16.5055 25.0476 16.4052 25.0721 16.329 25.1342C16.2529 25.1963 16.2085 25.2891 16.2085 25.3875V25.725L15.8863 27.6588C15.8833 27.6764 15.8817 27.6944 15.8817 27.7124V29.3462H13.8711L13.5901 27.6585C13.5846 27.6264 13.5748 27.5954 13.5601 27.566L12.5798 25.6054C12.5242 25.495 12.4112 25.425 12.2873 25.425H12.222C12.1151 25.425 12.0148 25.4773 11.954 25.5649C11.8926 25.6528 11.8786 25.7649 11.9155 25.8649C11.9462 25.9485 11.9606 26.0165 11.9606 26.0786C11.9606 26.439 11.6675 26.7321 11.307 26.7321C10.9466 26.7321 10.6535 26.439 10.6535 26.0786C10.6535 25.808 10.8257 25.5626 11.0822 25.4682C11.1888 25.4286 11.2672 25.3371 11.2897 25.2254C11.3119 25.114 11.2747 24.999 11.1914 24.9218C11.0551 24.7957 10.9803 24.6261 10.9803 24.4448C10.9803 24.0843 11.2734 23.7912 11.6338 23.7912C11.6992 23.7912 11.7681 23.805 11.8498 23.8344C11.9498 23.8703 12.0609 23.8553 12.1485 23.7942C12.2357 23.7331 12.2873 23.6334 12.2873 23.5269V23.1377C12.2873 22.5973 12.7272 22.1574 13.2676 22.1574C13.5339 22.1574 13.7839 22.264 13.9708 22.4574C14.0633 22.5535 14.2054 22.5835 14.3289 22.5329C14.5828 22.429 14.8678 22.4966 15.0521 22.6953C15.1295 22.7786 15.2449 22.8159 15.356 22.7933C15.4674 22.7711 15.5592 22.6923 15.5984 22.5858C15.6928 22.3296 15.9379 22.1574 16.2085 22.1574C16.5689 22.1574 16.862 22.4505 16.862 22.811C16.862 22.9714 16.8006 23.1269 16.6888 23.2491C16.6029 23.3432 16.5797 23.4782 16.6284 23.5955C16.6774 23.7128 16.7901 23.7912 16.9172 23.7961C17.427 23.8161 17.8423 24.1072 17.8423 24.4448C17.8423 24.799 17.3933 25.0983 16.862 25.0983Z" fill="black"/>
<path d="M27.3997 23.1406H27.0573C25.9195 23.1406 24.9761 23.9945 24.8627 25.1267L24.7216 26.5393L24.0599 26.9363L23.9543 26.8307C23.8932 26.7693 23.8102 26.735 23.7233 26.735H23.5599C22.9293 26.735 22.4163 27.248 22.4163 27.8787C22.4163 28.4574 22.8482 28.9371 23.4067 29.0122C23.4818 29.5706 23.9615 30.0026 24.5402 30.0026C25.1709 30.0026 25.6839 29.4896 25.6839 28.859V28.6956C25.6839 28.609 25.6496 28.5257 25.5881 28.4646L25.4826 28.359L25.8786 27.699L27.5994 27.5424C28.7427 27.4385 29.605 26.4942 29.605 25.3463C29.605 24.1301 28.6159 23.1406 27.3997 23.1406ZM24.8402 28.6407L25.0304 28.8309V28.859C25.0304 29.1292 24.8104 29.3491 24.5402 29.3491C24.27 29.3491 24.0501 29.1292 24.0501 28.859V28.6956C24.0501 28.5152 23.904 28.3688 23.7233 28.3688H23.5599C23.2897 28.3688 23.0698 28.1489 23.0698 27.8787C23.0698 27.6084 23.2897 27.3885 23.5599 27.3885H23.588L23.7782 27.5787C23.8841 27.6849 24.0484 27.7048 24.1775 27.6277L24.9797 27.1464L25.1261 27.2928L25.2725 27.4392L24.7912 28.2414C24.714 28.3701 24.7343 28.5345 24.8402 28.6407ZM27.5402 26.8915L25.8067 27.049L25.3708 26.6131L25.5133 25.1914C25.593 24.3947 26.2567 23.7941 27.0573 23.7941H27.3997C28.2552 23.7941 28.9515 24.4905 28.9515 25.3463C28.9515 26.154 28.345 26.8183 27.5402 26.8915Z" fill="black"/>
<path d="M13.7803 13.0366C13.5493 13.3133 13.1689 13.411 12.8555 13.2738C12.5905 13.1575 12.4105 12.8843 12.3968 12.5781L11.7439 12.6072C11.7684 13.1601 12.1017 13.6564 12.5928 13.8721C12.7716 13.9505 12.9614 13.9881 13.1506 13.9881C13.5734 13.9881 13.994 13.7999 14.2819 13.4555L13.7803 13.0366Z" fill="black"/>
<path d="M26.4724 24.6619C26.1446 24.9037 26.0201 25.2893 26.0129 25.57L26.6665 25.587C26.6671 25.5602 26.6782 25.3223 26.8606 25.188C27.0282 25.0645 27.2713 25.0691 27.4667 25.1978L27.8268 24.6525C27.4036 24.3728 26.8589 24.3767 26.4724 24.6619Z" fill="black"/>
<path d="M14.4385 25.0736C14.048 24.688 13.4699 24.4439 12.9409 24.4439V25.0975C13.5114 25.0975 14.248 25.5729 14.248 26.0778V27.3848H14.9015V26.0778C14.9015 25.6847 14.9969 24.7707 15.8818 24.7707V24.1172C15.1966 24.1172 14.694 24.4707 14.4385 25.0736Z" fill="black"/>
</svg>
