<svg width="40" height="40" viewBox="0 0 40 40" fill="none" xmlns="http://www.w3.org/2000/svg">
<path d="M15.6667 23.9922H13C12.4477 23.9922 12 24.4397 12 24.9918V27.6576C12 28.2097 12.4477 28.6572 13 28.6572H15.6667C16.219 28.6572 16.6667 28.2097 16.6667 27.6576V24.9918C16.6667 24.4397 16.219 23.9922 15.6667 23.9922ZM16 27.6576C16 27.8416 15.8508 27.9908 15.6667 27.9908H13C12.8159 27.9908 12.6667 27.8416 12.6667 27.6576V24.9918C12.6667 24.8078 12.8159 24.6586 13 24.6586H15.6667C15.8508 24.6586 16 24.8078 16 24.9918V27.6576Z" fill="black"/>
<path d="M16.8067 14.3989L16.6667 14.4989V14.3356C16.6667 13.7835 16.219 13.3359 15.6667 13.3359H13C12.4477 13.3359 12 13.7835 12 14.3356V17.0013C12 17.5534 12.4477 18.001 13 18.001H15.6667C16.219 18.001 16.6667 17.5534 16.6667 17.0013V15.3152L17.1933 14.9387C17.3017 14.8745 17.3647 14.7547 17.356 14.6291C17.3473 14.5034 17.2685 14.3934 17.1523 14.3447C17.0361 14.296 16.9024 14.317 16.8067 14.3989V14.3989ZM16 17.0013C16 17.1853 15.8508 17.3345 15.6667 17.3345H13C12.8159 17.3345 12.6667 17.1853 12.6667 17.0013V14.3356C12.6667 14.1516 12.8159 14.0024 13 14.0024H15.6667C15.8508 14.0024 16 14.1516 16 14.3356V14.972L14.79 15.8384L14.63 15.5052C14.54 15.3556 14.3498 15.3009 14.194 15.3796C14.0382 15.4584 13.9695 15.644 14.0367 15.8051L14.37 16.4715C14.4141 16.5577 14.4935 16.6205 14.5875 16.6435C14.6816 16.6666 14.7811 16.6476 14.86 16.5915L16 15.7917V17.0013Z" fill="black"/>
<path d="M16.8067 19.727L16.6667 19.827V19.6637C16.6667 19.1116 16.219 18.6641 15.6667 18.6641H13C12.4477 18.6641 12 19.1116 12 19.6637V22.3294C12 22.8815 12.4477 23.3291 13 23.3291H15.6667C16.219 23.3291 16.6667 22.8815 16.6667 22.3294V20.6434L17.1933 20.2668C17.3017 20.2026 17.3647 20.0828 17.356 19.9572C17.3473 19.8315 17.2685 19.7215 17.1523 19.6728C17.0361 19.6241 16.9024 19.6451 16.8067 19.727V19.727ZM16 22.3294C16 22.5135 15.8508 22.6627 15.6667 22.6627H13C12.8159 22.6627 12.6667 22.5135 12.6667 22.3294V19.6637C12.6667 19.4797 12.8159 19.3305 13 19.3305H15.6667C15.8508 19.3305 16 19.4797 16 19.6637V20.3002L14.79 21.1665L14.63 20.8333C14.582 20.718 14.4735 20.6392 14.3489 20.6292C14.2244 20.6193 14.1047 20.6798 14.0389 20.7859C13.9731 20.8921 13.9722 21.0262 14.0367 21.1332L14.37 21.7996C14.4141 21.8858 14.4935 21.9486 14.5875 21.9717C14.6816 21.9947 14.7811 21.9757 14.86 21.9196L16 21.1199V22.3294Z" fill="black"/>
<path d="M18.6707 14.6664H24.3374C24.5215 14.6664 24.6707 14.5172 24.6707 14.3332C24.6707 14.1492 24.5215 14 24.3374 14H18.6707C18.4866 14 18.3374 14.1492 18.3374 14.3332C18.3374 14.5172 18.4866 14.6664 18.6707 14.6664Z" fill="black"/>
<path d="M18.6707 16.6625H21.3374C21.5215 16.6625 21.6707 16.5133 21.6707 16.3293C21.6707 16.1453 21.5215 15.9961 21.3374 15.9961H18.6707C18.4866 15.9961 18.3374 16.1453 18.3374 16.3293C18.3374 16.5133 18.4866 16.6625 18.6707 16.6625Z" fill="black"/>
<path d="M18.6707 19.9946H24.3374C24.5215 19.9946 24.6707 19.8454 24.6707 19.6613C24.6707 19.4773 24.5215 19.3281 24.3374 19.3281H18.6707C18.4866 19.3281 18.3374 19.4773 18.3374 19.6613C18.3374 19.8454 18.4866 19.9946 18.6707 19.9946Z" fill="black"/>
<path d="M18.6707 21.9946H21.3374C21.5215 21.9946 21.6707 21.8454 21.6707 21.6613C21.6707 21.4773 21.5215 21.3281 21.3374 21.3281H18.6707C18.4866 21.3281 18.3374 21.4773 18.3374 21.6613C18.3374 21.8454 18.4866 21.9946 18.6707 21.9946Z" fill="black"/>
<path d="M29.3333 25.9944H28.6067C28.4214 25.4765 27.8524 25.2055 27.3333 25.3879V24.9947C27.3321 24.5721 27.0652 24.1959 26.6667 24.0551V12.3325C26.6667 11.5964 26.0697 10.9996 25.3333 10.9996H22.3333V10.6664C22.3333 10.2984 22.0349 10 21.6667 10H15C14.6318 10 14.3333 10.2984 14.3333 10.6664V10.9996H11.3333C10.597 10.9996 10 11.5964 10 12.3325V28.6601C10 29.3962 10.597 29.993 11.3333 29.993C26.6467 29.993 25.5 30.043 25.8733 29.8763C26.1826 30.0365 26.553 30.0243 26.851 29.844C27.149 29.6638 27.3317 29.3415 27.3333 28.9933V28.6001C27.8524 28.7826 28.4214 28.5116 28.6067 27.9937H29.3333C29.7015 27.9937 30 27.6953 30 27.3272V26.6608C30 26.2927 29.7015 25.9944 29.3333 25.9944ZM15 10.6664H21.6667V11.9993H15V10.6664ZM10.6667 28.6601V12.3325C10.6667 11.9645 10.9651 11.6661 11.3333 11.6661H14.3333V11.9993C14.3333 12.3674 14.6318 12.6657 15 12.6657H21.6667C22.0349 12.6657 22.3333 12.3674 22.3333 11.9993V11.6661H25.3333C25.7015 11.6661 26 11.9645 26 12.3325V24.0551C25.6014 24.1959 25.3345 24.5721 25.3333 24.9947V25.9944H22.6667V24.9947C22.6667 24.4426 22.219 23.9951 21.6667 23.9951C21.1144 23.9951 20.6667 24.4426 20.6667 24.9947V25.3879C20.1476 25.2055 19.5786 25.4765 19.3933 25.9944H18.6667C18.2985 25.9944 18 26.2927 18 26.6608V27.3272C18 27.6953 18.2985 27.9937 18.6667 27.9937H19.3933C19.5786 28.5116 20.1476 28.7826 20.6667 28.6001C20.642 28.8439 20.6623 29.0901 20.7267 29.3265H11.3333C10.9651 29.3265 10.6667 29.0282 10.6667 28.6601ZM18.6667 27.3272V26.6608H19.3333V27.3272H18.6667ZM20 26.3276C20 26.1436 20.1492 25.9944 20.3333 25.9944C20.5174 25.9944 20.6667 26.1436 20.6667 26.3276V27.6605C20.6667 27.8445 20.5174 27.9937 20.3333 27.9937C20.1492 27.9937 20 27.8445 20 27.6605V26.3276ZM21.3333 28.9933V24.9947C21.3333 24.8107 21.4826 24.6615 21.6667 24.6615C21.8508 24.6615 22 24.8107 22 24.9947V28.9933C22 29.1774 21.8508 29.3265 21.6667 29.3265C21.4826 29.3265 21.3333 29.1774 21.3333 28.9933ZM22.6667 26.6608H25.3333V27.3272H22.6667V26.6608ZM22.6067 29.3265C22.6867 29.1 22.6667 29.0733 22.6667 27.9937H25.3333C25.3333 28.9933 25.31 29.08 25.3933 29.3265C25.2567 29.3265 25.8533 29.3265 22.6067 29.3265ZM26.6667 28.9933C26.6667 29.1774 26.5174 29.3265 26.3333 29.3265C26.1492 29.3265 26 29.1774 26 28.9933V24.9947C26 24.8107 26.1492 24.6615 26.3333 24.6615C26.5174 24.6615 26.6667 24.8107 26.6667 24.9947V28.9933ZM27.6667 27.9937C27.4826 27.9937 27.3333 27.8445 27.3333 27.6605V26.3276C27.3333 26.1436 27.4826 25.9944 27.6667 25.9944C27.8508 25.9944 28 26.1436 28 26.3276V27.6605C28 27.8445 27.8508 27.9937 27.6667 27.9937ZM29.3333 27.3272H28.6667V26.6608H29.3333V27.3272Z" fill="black"/>
</svg>
