<svg width="40" height="40" viewBox="0 0 40 40" fill="none" xmlns="http://www.w3.org/2000/svg">
<path d="M21.5245 15.9062H16.3815C16.2124 15.9062 16.0754 16.0377 16.0754 16.1998C16.0754 16.3619 16.2124 16.4934 16.3815 16.4934H21.5245C21.6936 16.4934 21.8306 16.3619 21.8306 16.1998C21.8306 16.0377 21.6936 15.9062 21.5245 15.9062Z" fill="black"/>
<path d="M16.3815 17.5441H19.2721C19.4412 17.5441 19.5782 17.4127 19.5782 17.2506C19.5782 17.0885 19.4412 16.957 19.2721 16.957H16.3815C16.2124 16.957 16.0754 17.0885 16.0754 17.2506C16.0755 17.4127 16.2125 17.5441 16.3815 17.5441Z" fill="black"/>
<path d="M14.8413 15.7878L13.7149 16.8958L13.2276 16.4412C13.1064 16.3282 12.9127 16.3308 12.7949 16.447C12.6771 16.5633 12.6798 16.7491 12.8009 16.8621L13.5073 17.521C13.6267 17.6325 13.8234 17.6299 13.9397 17.5155L15.2794 16.1977C15.3974 16.0816 15.395 15.8958 15.274 15.7826C15.1529 15.6694 14.9592 15.6718 14.8413 15.7878V15.7878Z" fill="black"/>
<path d="M21.5245 18.8945H16.3815C16.2124 18.8945 16.0754 19.0259 16.0754 19.1881C16.0754 19.3502 16.2124 19.4816 16.3815 19.4816H21.5245C21.6936 19.4816 21.8306 19.3502 21.8306 19.1881C21.8306 19.026 21.6936 18.8945 21.5245 18.8945Z" fill="black"/>
<path d="M19.2721 19.9492H16.3815C16.2124 19.9492 16.0754 20.0806 16.0754 20.2428C16.0754 20.4049 16.2124 20.5363 16.3815 20.5363H19.2721C19.4412 20.5363 19.5782 20.4049 19.5782 20.2428C19.5782 20.0807 19.4412 19.9492 19.2721 19.9492V19.9492Z" fill="black"/>
<path d="M14.8413 18.7761L13.7149 19.884L13.2276 19.4295C13.1064 19.3165 12.9127 19.3191 12.7949 19.4353C12.6771 19.5515 12.6798 19.7374 12.8009 19.8504L13.5073 20.5093C13.6267 20.6207 13.8234 20.6181 13.9397 20.5038L15.2794 19.186C15.3974 19.0699 15.395 18.8841 15.274 18.7709C15.153 18.6577 14.9592 18.6601 14.8413 18.7761V18.7761Z" fill="black"/>
<path d="M14.8413 21.7644L13.7149 22.8723L13.2276 22.4178C13.1064 22.3047 12.9127 22.3074 12.7949 22.4236C12.6771 22.5398 12.6798 22.7257 12.8009 22.8387L13.5073 23.4975C13.6267 23.609 13.8234 23.6064 13.9397 23.492L15.2794 22.1742C15.3974 22.0582 15.395 21.8723 15.274 21.7591C15.153 21.646 14.9592 21.6483 14.8413 21.7644V21.7644Z" fill="black"/>
<path d="M14.8413 24.7566L13.7149 25.8645L13.2276 25.41C13.1064 25.2969 12.9127 25.2996 12.7949 25.4158C12.6771 25.532 12.6798 25.7178 12.8009 25.8309L13.5073 26.4898C13.6267 26.6013 13.8234 26.5986 13.9397 26.4843L15.2794 25.1665C15.3974 25.0505 15.395 24.8646 15.274 24.7514C15.153 24.6381 14.9592 24.6405 14.8413 24.7566V24.7566Z" fill="black"/>
<path d="M27.469 20.233C28.1163 19.2988 27.9706 18.0134 27.9633 17.9526C27.9469 17.8173 27.8356 17.7105 27.6945 17.6948C27.6234 17.6869 25.9396 17.5114 24.9754 18.4363C24.9231 18.4864 24.8751 18.5391 24.8293 18.593V16.5607C24.8293 16.3985 24.6923 16.2671 24.5233 16.2671C24.3543 16.2671 24.2173 16.3985 24.2173 16.5607V19.3611C24.0131 19.0511 23.7409 18.7402 23.3786 18.4578V13.3236C23.3786 13.1615 23.2416 13.0301 23.0726 13.0301H20.9387V12.2093H23.7306C23.999 12.2093 24.2172 12.4187 24.2172 12.676V15.3865C24.2172 15.5486 24.3542 15.68 24.5233 15.68C24.6923 15.68 24.8293 15.5486 24.8293 15.3865V12.6761C24.8293 12.095 24.3364 11.6222 23.7307 11.6222H20.8789C20.7565 11.33 20.4586 11.1228 20.1106 11.1228H19.0978V10.691C19.0979 10.31 18.7747 10 18.3775 10H16.4518C16.0546 10 15.7314 10.31 15.7314 10.691V11.1227H14.7187C14.3707 11.1227 14.0728 11.3299 13.9504 11.6222H11.0986C10.4928 11.6222 10 12.0949 10 12.676V28.9384C10 29.5195 10.4929 29.9923 11.0986 29.9923H23.0951C23.6117 30.0332 24.1008 29.8853 24.5233 29.5548C24.8986 29.8488 25.3267 30 25.7836 30C25.8725 30 25.9625 29.9943 26.0533 29.9828C27.0777 29.853 28.1062 29.0132 28.8753 27.6785C28.9571 27.5367 28.9035 27.3581 28.7556 27.2796C28.6077 27.2012 28.4215 27.2526 28.3397 27.3945C27.6755 28.5472 26.7908 29.2972 25.9733 29.4007C25.5147 29.4587 25.1012 29.3079 24.7436 28.9523C24.6249 28.8345 24.4218 28.8344 24.3032 28.9523C23.8481 29.4047 23.3095 29.5254 22.7021 29.3109C22.009 29.0662 21.2954 28.391 20.7441 27.4583C20.1347 26.4271 19.7519 25.1333 19.6664 23.8151C19.6099 22.9448 19.8641 22.2148 20.4219 21.6454C21.1673 20.8845 22.4657 20.4179 24.0315 20.3374C24.0601 20.4171 24.0868 20.4982 24.1097 20.5815C24.2107 20.9487 24.2332 21.2759 24.2335 21.4931C23.6659 21.4179 23.2954 21.1477 23.2921 21.1453C23.1595 21.0448 22.9671 21.0663 22.8623 21.1935C22.7575 21.3207 22.78 21.5053 22.9126 21.6058C22.9392 21.626 23.5746 22.0995 24.5231 22.0995C24.5233 22.0995 24.5235 22.0996 24.5237 22.0996C24.5242 22.0996 24.5247 22.0995 24.5253 22.0995C25.4728 22.0988 26.1075 21.6259 26.134 21.6058C26.2859 21.4906 26.286 21.2637 26.1353 21.1475C26.4459 21.0541 26.7574 20.9126 27.0284 20.7005C29.0884 21.3967 29.448 22.7711 29.3803 23.8151C29.3223 24.7077 29.1368 25.5655 28.8288 26.3644C28.7732 26.5086 28.8468 26.674 28.9938 26.7353C29.1528 26.8017 29.3427 26.7239 29.4028 26.568C29.7315 25.7153 29.9294 24.8013 29.9911 23.8515C30.1 22.1731 29.2076 20.9015 27.469 20.233V20.233ZM14.5026 11.9171C14.5026 11.8028 14.5995 11.7099 14.7187 11.7099H16.0375C16.2065 11.7099 16.3435 11.5784 16.3435 11.4163V10.691C16.3435 10.6337 16.3921 10.5871 16.4518 10.5871H18.3775C18.4373 10.5871 18.4858 10.6337 18.4858 10.691V11.4163C18.4858 11.5784 18.6228 11.7099 18.7919 11.7099H20.1107C20.2299 11.7099 20.3268 11.8028 20.3268 11.9171V13.2956C20.3268 13.4099 20.2298 13.5029 20.1107 13.5029H14.7187C14.5995 13.5029 14.5026 13.4099 14.5026 13.2956V11.9171ZM19.9759 21.2434C19.7811 21.4423 19.6178 21.657 19.484 21.8858H16.3798C16.2108 21.8858 16.0738 22.0172 16.0738 22.1794C16.0738 22.3415 16.2108 22.4729 16.3798 22.4729H19.2184C19.1684 22.6234 19.1287 22.7787 19.1006 22.9392H16.3798C16.2108 22.9392 16.0738 23.0706 16.0738 23.2327C16.0738 23.3948 16.2108 23.5263 16.3798 23.5263H19.0478C19.0465 23.633 19.0484 23.7413 19.0556 23.8517C19.0781 24.1983 19.1191 24.5402 19.1773 24.8754H16.3798C16.2108 24.8754 16.0738 25.0069 16.0738 25.169C16.0738 25.3311 16.2108 25.4626 16.3798 25.4626H19.2989C19.3369 25.6199 19.3784 25.7754 19.4242 25.9288H16.3798C16.2108 25.9288 16.0738 26.0602 16.0738 26.2223C16.0738 26.3844 16.2108 26.5159 16.3798 26.5159H19.6234C19.7875 26.9489 19.9836 27.3619 20.2117 27.748C20.2622 27.8332 20.3138 27.9163 20.3664 27.9975H12.0627V21.8535C12.0627 21.6914 11.9257 21.56 11.7567 21.56C11.5876 21.56 11.4506 21.6914 11.4506 21.8535V28.2909C11.4506 28.453 11.5876 28.5844 11.7567 28.5844H20.7949C21.063 28.9096 21.3499 29.1857 21.648 29.4052H11.0986C10.8303 29.4052 10.612 29.1958 10.612 28.9385V12.6761C10.612 12.4187 10.8303 12.2093 11.0986 12.2093H13.8905V13.0301H11.7567C11.5876 13.0301 11.4506 13.1615 11.4506 13.3236V20.6793C11.4506 20.8414 11.5876 20.9729 11.7567 20.9729C11.9257 20.9729 12.0627 20.8414 12.0627 20.6793V13.6172H13.9621C14.0911 13.8952 14.3814 14.0899 14.7187 14.0899H20.1107C20.4479 14.0899 20.7382 13.8953 20.8672 13.6172H22.7666V18.0671C22.6324 18.0253 22.4815 18.0771 22.4078 18.1988C22.3229 18.339 22.3725 18.5186 22.5186 18.6001C22.6047 18.648 22.6869 18.6988 22.7666 18.7514V19.8995C21.5911 20.1276 20.6157 20.5904 19.9759 21.2434V21.2434ZM23.3787 19.8044V19.264C23.524 19.4193 23.6513 19.587 23.7605 19.767C23.6315 19.7769 23.5042 19.7894 23.3787 19.8044ZM24.8458 21.4888C24.8457 21.4371 24.8445 21.3809 24.8417 21.3204C24.8525 21.3204 24.8626 21.3206 24.8737 21.3206C25.0526 21.3206 25.2785 21.3109 25.5255 21.2775C25.3666 21.3554 25.1325 21.4465 24.8458 21.4888V21.4888ZM24.797 20.732C24.7893 20.2979 24.847 19.3898 25.4082 18.8514C25.9694 18.313 26.9175 18.2577 27.3687 18.2651C27.3765 18.6993 27.3187 19.6074 26.7575 20.1457C26.1963 20.6841 25.25 20.7393 24.797 20.732V20.732Z" fill="black"/>
</svg>
