<svg width="40" height="40" viewBox="0 0 40 40" fill="none" xmlns="http://www.w3.org/2000/svg">
<path d="M12.8564 12.864C12.8564 12.1065 13.1574 11.38 13.6932 10.8444C14.229 10.3087 14.9557 10.0078 15.7134 10.0078C16.4711 10.0078 17.1978 10.3087 17.7335 10.8444C18.2693 11.38 18.5703 12.1065 18.5703 12.864C18.5703 13.6214 18.2693 14.3479 17.7335 14.8835C17.1978 15.4192 16.4711 15.7201 15.7134 15.7201C14.9557 15.7201 14.229 15.4192 13.6932 14.8835C13.1574 14.3479 12.8564 13.6214 12.8564 12.864V12.864ZM15.7134 11.4359C15.3345 11.4359 14.9712 11.5863 14.7033 11.8542C14.4354 12.122 14.2849 12.4852 14.2849 12.864C14.2849 13.2427 14.4354 13.6059 14.7033 13.8737C14.9712 14.1416 15.3345 14.292 15.7134 14.292C16.0922 14.292 16.4556 14.1416 16.7235 13.8737C16.9914 13.6059 17.1419 13.2427 17.1419 12.864C17.1419 12.4852 16.9914 12.122 16.7235 11.8542C16.4556 11.5863 16.0922 11.4359 15.7134 11.4359V11.4359Z" fill="black"/>
<path d="M22.5403 15.127C22.241 14.8988 21.9898 14.6137 21.8011 14.2882C21.6123 13.9626 21.4898 13.6029 21.4406 13.2299C21.3913 12.8568 21.4163 12.4777 21.5141 12.1143C21.6118 11.751 21.7804 11.4105 22.0102 11.1124C22.24 10.8144 22.5265 10.5647 22.8531 10.3777C23.1797 10.1907 23.5401 10.07 23.9135 10.0227C24.2869 9.97535 24.666 10.0022 25.029 10.1018C25.3919 10.2014 25.7317 10.3717 26.0286 10.6029C26.6133 11.0705 26.991 11.7488 27.0804 12.4919C27.1699 13.2351 26.964 13.9836 26.507 14.5765C26.0501 15.1694 25.3785 15.5593 24.637 15.6623C23.8954 15.7652 23.143 15.573 22.5417 15.127H22.5403ZM24.2844 11.4369C23.9056 11.4369 23.5422 11.5874 23.2744 11.8552C23.0065 12.123 22.856 12.4862 22.856 12.865C22.856 13.2437 23.0065 13.607 23.2744 13.8748C23.5422 14.1426 23.9056 14.2931 24.2844 14.2931C24.6633 14.2931 25.0266 14.1426 25.2945 13.8748C25.5624 13.607 25.7129 13.2437 25.7129 12.865C25.7129 12.4862 25.5624 12.123 25.2945 11.8552C25.0266 11.5874 24.6633 11.4369 24.2844 11.4369V11.4369Z" fill="black"/>
<path d="M12.1427 17.1484H15.9567C15.7996 17.5954 15.7139 18.0767 15.7139 18.5765H12.1427C11.9533 18.5765 11.7716 18.6517 11.6377 18.7856C11.5037 18.9196 11.4285 19.1012 11.4285 19.2905C11.4285 20.4573 11.8927 21.3227 12.6255 21.911C12.9626 22.1824 13.3669 22.4009 13.824 22.5608C13.4883 22.9175 13.2297 23.3395 13.0641 23.8004C12.5846 23.6078 12.1356 23.3466 11.7313 23.0249C10.6571 22.161 10 20.8843 10 19.2905C10 18.7224 10.2257 18.1776 10.6276 17.7758C11.0294 17.3741 11.5744 17.1484 12.1427 17.1484V17.1484Z" fill="black"/>
<path d="M17.5261 17.148C17.1473 17.8044 17.0448 18.5843 17.2411 19.3163C17.4375 20.0482 17.9167 20.6722 18.5732 21.0509C19.2298 21.4297 20.0099 21.5322 20.7421 21.3358C21.4742 21.1395 22.0984 20.6605 22.4772 20.0041C22.8561 19.3478 22.9586 18.5678 22.7622 17.8359C22.5659 17.104 22.0867 16.48 21.4301 16.1012C20.7736 15.7225 19.9934 15.62 19.2613 15.8163C18.5291 16.0126 17.905 16.4916 17.5261 17.148V17.148ZM19.6803 17.1837C19.8896 17.1364 20.1068 17.1368 20.316 17.1847C20.5251 17.2326 20.7208 17.3268 20.8887 17.4605C21.0565 17.5942 21.1921 17.7638 21.2856 17.9569C21.3791 18.15 21.428 18.3616 21.4287 18.5761C21.4286 18.8448 21.3527 19.108 21.2096 19.3355C21.0666 19.563 20.8623 19.7455 20.6201 19.8621C20.378 19.9787 20.1078 20.0246 19.8407 19.9946C19.5737 19.9646 19.3205 19.8599 19.1102 19.6925C18.9 19.5251 18.7413 19.3018 18.6523 19.0482C18.5633 18.7947 18.5477 18.5212 18.6073 18.2591C18.6668 17.9971 18.7991 17.7572 18.9889 17.567C19.1787 17.3767 19.4183 17.2439 19.6803 17.1837Z" fill="black"/>
<path d="M27.3751 21.911C27.038 22.1824 26.6338 22.4009 26.1766 22.5608C26.5118 22.9177 26.77 23.3396 26.9352 23.8004C27.4208 23.6019 27.8708 23.3434 28.2694 23.0249C29.3436 22.161 30.0007 20.8843 30.0007 19.2905C30.0007 18.7224 29.7749 18.1776 29.3731 17.7758C28.9712 17.3741 28.4262 17.1484 27.858 17.1484H24.0439C24.2011 17.5954 24.2868 18.0767 24.2868 18.5765H27.858C28.0474 18.5765 28.2291 18.6517 28.363 18.7856C28.4969 18.9196 28.5722 19.1012 28.5722 19.2905C28.5722 20.4573 28.1079 21.3227 27.3751 21.911Z" fill="black"/>
<path d="M23.5726 22.8594C24.1409 22.8594 24.6859 23.0851 25.0878 23.4868C25.4896 23.8885 25.7154 24.4334 25.7154 25.0015C25.7154 26.5952 25.0597 27.8719 23.984 28.7359C22.9256 29.5856 21.5057 29.9997 20.0015 29.9997C18.4973 29.9997 17.0774 29.5856 16.0189 28.7359C14.9447 27.8719 14.2876 26.5952 14.2876 25.0015C14.2869 24.72 14.3418 24.4411 14.4492 24.1808C14.5566 23.9206 14.7144 23.6842 14.9135 23.4851C15.1126 23.286 15.3491 23.1283 15.6094 23.0209C15.8697 22.9135 16.1487 22.8586 16.4303 22.8594H23.5726ZM23.5726 24.2875H16.4303C16.2409 24.2875 16.0592 24.3627 15.9253 24.4966C15.7913 24.6305 15.7161 24.8121 15.7161 25.0015C15.7161 26.1682 16.1803 27.0336 16.9131 27.622C17.6645 28.2246 18.7444 28.5717 20.0015 28.5717C21.2585 28.5717 22.3385 28.2246 23.0898 27.622C23.8226 27.0336 24.2869 26.1682 24.2869 25.0015C24.2869 24.8121 24.2116 24.6305 24.0777 24.4966C23.9437 24.3627 23.7621 24.2875 23.5726 24.2875V24.2875Z" fill="black"/>
</svg>
