<svg width="40" height="40" viewBox="0 0 40 40" fill="none" xmlns="http://www.w3.org/2000/svg">
<path d="M24.9752 18.6177H24.2323L25.1688 15.2088C25.1809 15.1646 25.1724 15.1182 25.1452 15.0795C25.118 15.0407 25.0743 15.0129 25.0236 15.0018L24.2277 14.8294C24.1772 14.8184 24.1238 14.825 24.0789 14.8478C24.0339 14.8706 24.0011 14.9078 23.9874 14.9513L22.8336 18.6177H22.3835C22.5152 18.4693 22.587 18.2875 22.5877 18.1004V17.5831H21.9908C21.7571 17.5835 21.5311 17.6553 21.3524 17.7857C21.1737 17.9162 21.0536 18.097 21.0133 18.2964C20.9369 18.2004 20.8386 18.119 20.7244 18.0573C20.6103 17.9955 20.4828 17.9547 20.3497 17.9374C20.2166 17.9201 20.0809 17.9266 19.9509 17.9566C19.8208 17.9865 19.6993 18.0393 19.5937 18.1116C20.0012 16.6017 20.0012 16.5829 20.0012 16.5484C20.0011 16.4528 19.9781 16.3581 19.9336 16.2706C19.8891 16.183 19.8241 16.1045 19.7426 16.0399C19.6612 15.9753 19.5651 15.9261 19.4606 15.8954C19.356 15.8647 19.2452 15.8532 19.1353 15.8616C19.0544 15.659 18.9026 15.4834 18.7011 15.359C18.4997 15.2347 18.2585 15.1679 18.0111 15.1679C17.7638 15.1679 17.5226 15.2347 17.3211 15.359C17.1197 15.4834 16.9679 15.659 16.887 15.8616C16.7771 15.8533 16.6664 15.8649 16.5619 15.8956C16.4575 15.9263 16.3615 15.9756 16.2802 16.0401C16.1988 16.1047 16.1339 16.1833 16.0894 16.2708C16.0449 16.3583 16.022 16.4528 16.0219 16.5484C16.0219 16.5952 16.0231 16.6733 16.3601 17.5951C16.3141 17.5883 16.2676 17.5842 16.2209 17.5831H15.624V18.1004C15.6247 18.2875 15.6964 18.4693 15.8281 18.6177H15.0271C14.9743 18.6177 14.9237 18.6358 14.8864 18.6682C14.8491 18.7005 14.8281 18.7444 14.8281 18.7901C14.8281 20.395 16.5643 21.4112 17.0167 21.6483V22.2389C17.0167 22.2846 17.0377 22.3285 17.075 22.3608C17.1123 22.3931 17.1629 22.4113 17.2157 22.4113H22.7866C22.8394 22.4113 22.89 22.3931 22.9273 22.3608C22.9646 22.3285 22.9856 22.2846 22.9856 22.2389V21.6483C23.4381 21.4112 25.1742 20.395 25.1742 18.7901C25.1742 18.7444 25.1532 18.7005 25.1159 18.6682C25.0786 18.6358 25.028 18.6177 24.9752 18.6177V18.6177ZM24.3201 15.2048L24.7361 15.2948L23.8232 18.6177H23.2463L24.3201 15.2048ZM21.3939 18.4452C21.3939 18.308 21.4568 18.1765 21.5687 18.0794C21.6807 17.9824 21.8325 17.9279 21.9908 17.9279H22.1898V18.1004C22.1898 18.2376 22.1269 18.3691 22.0149 18.4662C21.903 18.5632 21.7512 18.6177 21.5929 18.6177H21.3939V18.4452ZM20.2001 18.2728C20.3235 18.2729 20.4439 18.3061 20.5447 18.3679C20.6454 18.4296 20.7217 18.5169 20.763 18.6177H19.6373C19.6786 18.5169 19.7548 18.4296 19.8556 18.3679C19.9564 18.3061 20.0767 18.2729 20.2001 18.2728V18.2728ZM19.1713 18.6177H18.0456C18.0867 18.5167 18.1629 18.4294 18.2637 18.3675C18.3645 18.3057 18.4849 18.2725 18.6084 18.2725C18.7319 18.2725 18.8524 18.3057 18.9532 18.3675C19.054 18.4294 19.1302 18.5167 19.1713 18.6177V18.6177ZM16.4198 16.5484C16.4184 16.492 16.4333 16.4361 16.4631 16.3859C16.4929 16.3357 16.5367 16.2928 16.5905 16.261C16.6443 16.2292 16.7065 16.2095 16.7713 16.2038C16.8361 16.1982 16.9015 16.2066 16.9616 16.2284C16.9892 16.2375 17.0189 16.2412 17.0484 16.2392C17.0778 16.2371 17.1064 16.2294 17.132 16.2166C17.1577 16.2038 17.1797 16.1862 17.1964 16.1651C17.2132 16.144 17.2243 16.1199 17.229 16.0946C17.258 15.9327 17.3528 15.7852 17.4963 15.6786C17.6398 15.572 17.8225 15.5134 18.0115 15.5134C18.2005 15.5134 18.3833 15.572 18.5268 15.6786C18.6703 15.7852 18.7651 15.9327 18.7941 16.0946C18.7987 16.1199 18.8099 16.144 18.8266 16.1651C18.8434 16.1862 18.8654 16.2038 18.891 16.2166C18.9166 16.2294 18.9452 16.2371 18.9747 16.2392C19.0042 16.2412 19.0338 16.2375 19.0615 16.2284C19.1205 16.207 19.1847 16.1985 19.2484 16.2036C19.3121 16.2087 19.3734 16.2273 19.4269 16.2577C19.4804 16.2882 19.5244 16.3295 19.5552 16.3782C19.5859 16.4268 19.6024 16.4812 19.6032 16.5367C19.5766 16.659 19.3434 17.526 19.1902 18.0938C19.0215 17.9864 18.8178 17.9283 18.6084 17.9279C18.3792 17.9282 18.157 17.9969 17.9795 18.1226C17.8019 18.2482 17.6797 18.4231 17.6335 18.6177H17.2157V18.4452C17.2151 18.3173 17.1816 18.1911 17.1174 18.0759C17.0533 17.9607 16.9602 17.8594 16.845 17.7795C16.4753 16.7805 16.424 16.5807 16.4198 16.5484V16.5484ZM16.0219 18.1004V17.9279H16.2209C16.3792 17.9279 16.531 17.9824 16.6429 18.0794C16.7549 18.1765 16.8178 18.308 16.8178 18.4452V18.6177H16.6188C16.4605 18.6177 16.3087 18.5632 16.1967 18.4662C16.0848 18.3691 16.0219 18.2376 16.0219 18.1004ZM22.7329 21.3767H21.7918V21.7215H22.5877V22.0664H17.4146V21.7215H20.0012V21.3767H17.2694C17.0454 21.2618 15.9071 20.6371 15.4342 19.6523H17.6136V19.3074H15.3027C15.269 19.1943 15.2461 19.0789 15.2342 18.9626H24.7681C24.7562 19.0789 24.7333 19.1943 24.6997 19.3074H20.3991V19.6523H24.5682C24.0952 20.6371 22.957 21.2618 22.7329 21.3767V21.3767Z" fill="black"/>
<path d="M18.01 19.3086H18.4079V19.6535H18.01V19.3086Z" fill="black"/>
<path d="M18.8103 19.3086H19.2082V19.6535H18.8103V19.3086Z" fill="black"/>
<path d="M19.6023 19.3086H20.0002V19.6535H19.6023V19.3086Z" fill="black"/>
<path d="M19.7019 14.7156C19.6519 14.8152 19.64 14.9261 19.6681 15.0319C19.7538 15.3802 20.2176 15.7344 20.7471 15.856C21.1516 15.9514 21.5662 16.0111 21.9846 16.0341H21.9918C22.0284 16.0341 22.0642 16.0253 22.0955 16.0088C22.1267 15.9922 22.152 15.9686 22.1687 15.9404C22.1854 15.9121 22.1928 15.8805 22.1901 15.8489C22.1874 15.8172 22.1747 15.7869 22.1533 15.7611C22.1512 15.7584 21.9283 15.4901 21.5525 15.0667C21.3855 14.8786 20.9423 14.4356 20.4327 14.3832C20.2775 14.3664 20.1202 14.3932 19.9838 14.4596C19.8735 14.4161 19.7795 14.3467 19.7123 14.2593C19.6452 14.1718 19.6078 14.0698 19.6042 13.9648H19.2063C19.2062 14.1166 19.2519 14.2657 19.3388 14.3974C19.4258 14.5291 19.5509 14.6388 19.7019 14.7156V14.7156ZM20.3366 14.7231C20.353 14.723 20.3695 14.724 20.3858 14.7258C20.6315 14.751 20.9576 14.9622 21.2373 15.2776C21.3649 15.4214 21.4747 15.547 21.5638 15.6501C21.323 15.6194 21.0843 15.577 20.8489 15.523C20.4347 15.428 20.1052 15.1555 20.0573 14.9605C20.047 14.9292 20.0482 14.8959 20.0607 14.8652C20.0732 14.8346 20.0964 14.808 20.1271 14.7893C20.1856 14.7464 20.26 14.7231 20.3366 14.7236V14.7231Z" fill="black"/>
<path d="M17.2153 16.8945H17.6133V17.2394H17.2153V16.8945Z" fill="black"/>
<path d="M18.2095 17.2383H18.6074V17.5832H18.2095V17.2383Z" fill="black"/>
<path d="M15.8113 14.8249C15.8634 14.8273 16.0519 14.8352 16.301 14.8352C16.7966 14.8352 17.5319 14.8035 17.9048 14.6326C18.1528 14.5068 18.3357 14.3035 18.4159 14.0644C18.4643 13.9518 18.4865 13.8321 18.4813 13.7121C18.4761 13.5921 18.4436 13.4741 18.3857 13.365C18.1404 12.9625 17.3978 12.9029 16.9231 13.1205C16.3559 13.3803 15.7158 14.4529 15.6448 14.5743C15.6297 14.5999 15.6223 14.6283 15.6231 14.6571C15.624 14.6858 15.6331 14.7138 15.6496 14.7387C15.6662 14.7636 15.6896 14.7845 15.7178 14.7996C15.7461 14.8146 15.7782 14.8233 15.8113 14.8249V14.8249ZM16.9711 13.8721L16.3646 14.1787C16.4579 14.051 16.56 13.9225 16.6631 13.8056L16.9711 13.8721ZM17.215 14.1479V14.4429C16.993 14.4677 16.7697 14.4821 16.5459 14.4862L17.215 14.1479ZM18.0375 13.9582C17.9882 14.1115 17.8747 14.2434 17.7192 14.3281C17.6848 14.3426 17.6494 14.3551 17.6131 14.3655V13.9468L18.0813 13.71C18.0828 13.7941 18.068 13.8778 18.0375 13.9577V13.9582ZM17.8873 13.4093L17.4631 13.6238L16.9667 13.5162C17.0104 13.4818 17.0584 13.4516 17.1097 13.4262C17.2298 13.3736 17.3618 13.3448 17.4963 13.3418C17.6307 13.3388 17.7643 13.3617 17.8873 13.4088V13.4093Z" fill="black"/>
<path d="M22.5849 13.4459H22.9828C23.0356 13.4459 23.0862 13.4277 23.1235 13.3954C23.1608 13.3631 23.1818 13.3192 23.1818 13.2735C23.1813 12.9534 23.0345 12.6466 22.7734 12.4203C22.5123 12.1941 22.1583 12.0668 21.789 12.0664H21.3911C21.3383 12.0664 21.2877 12.0846 21.2504 12.1169C21.2131 12.1493 21.1921 12.1931 21.1921 12.2388C21.1926 12.5589 21.3394 12.8657 21.6005 13.092C21.8616 13.3183 22.2156 13.4455 22.5849 13.4459ZM21.789 12.4113C22.0183 12.4115 22.2404 12.4802 22.418 12.6059C22.5956 12.7315 22.7178 12.9064 22.7639 13.101H22.5849C22.3556 13.1008 22.1335 13.0321 21.9559 12.9064C21.7783 12.7808 21.6561 12.6059 21.61 12.4113H21.789Z" fill="black"/>
<path d="M20.1992 13.4448C20.3172 13.4448 20.4326 13.4144 20.5308 13.3576C20.629 13.3008 20.7055 13.22 20.7506 13.1254C20.7958 13.0309 20.8076 12.9269 20.7846 12.8265C20.7616 12.7262 20.7047 12.634 20.6213 12.5617C20.5378 12.4893 20.4314 12.4401 20.3156 12.4201C20.1998 12.4001 20.0798 12.4104 19.9708 12.4495C19.8617 12.4887 19.7685 12.555 19.7029 12.6401C19.6373 12.7251 19.6023 12.8252 19.6023 12.9275C19.6023 13.0647 19.6652 13.1962 19.7771 13.2933C19.8891 13.3903 20.0409 13.4448 20.1992 13.4448V13.4448ZM20.1992 12.755C20.2385 12.755 20.277 12.7651 20.3097 12.7841C20.3424 12.803 20.3679 12.83 20.383 12.8615C20.3981 12.893 20.402 12.9277 20.3943 12.9611C20.3866 12.9946 20.3677 13.0253 20.3399 13.0494C20.312 13.0735 20.2766 13.0899 20.238 13.0966C20.1994 13.1032 20.1594 13.0998 20.123 13.0868C20.0867 13.0737 20.0556 13.0516 20.0338 13.0233C20.0119 12.9949 20.0002 12.9616 20.0002 12.9275C20.0002 12.8817 20.0212 12.8379 20.0585 12.8055C20.0958 12.7732 20.1464 12.755 20.1992 12.755V12.755Z" fill="black"/>
<path d="M22.3884 14.4822C22.3884 14.5845 22.4234 14.6845 22.489 14.7696C22.5546 14.8546 22.6478 14.9209 22.7569 14.9601C22.866 14.9992 22.986 15.0095 23.1018 14.9895C23.2176 14.9696 23.3239 14.9203 23.4074 14.848C23.4909 14.7756 23.5477 14.6834 23.5707 14.5831C23.5938 14.4827 23.582 14.3787 23.5368 14.2842C23.4916 14.1897 23.4151 14.1089 23.3169 14.052C23.2188 13.9952 23.1034 13.9648 22.9853 13.9648C22.827 13.9648 22.6752 14.0193 22.5633 14.1164C22.4513 14.2134 22.3884 14.345 22.3884 14.4822ZM23.1843 14.4822C23.1843 14.5163 23.1726 14.5496 23.1508 14.578C23.1289 14.6063 23.0978 14.6284 23.0615 14.6415C23.0251 14.6545 22.9851 14.6579 22.9465 14.6513C22.9079 14.6446 22.8725 14.6282 22.8446 14.6041C22.8168 14.58 22.7979 14.5492 22.7902 14.5158C22.7825 14.4823 22.7864 14.4477 22.8015 14.4162C22.8166 14.3847 22.8421 14.3577 22.8748 14.3388C22.9075 14.3198 22.946 14.3097 22.9853 14.3097C23.0381 14.3097 23.0887 14.3279 23.126 14.3602C23.1633 14.3926 23.1843 14.4364 23.1843 14.4822Z" fill="black"/>
<path d="M20.9954 16.7227H21.3933V17.0675H20.9954V16.7227Z" fill="black"/>
<path d="M21.5935 13.7891H21.9914V14.1339H21.5935V13.7891Z" fill="black"/>
<path d="M18.4089 12.2383H18.8069V12.5832H18.4089V12.2383Z" fill="black"/>
<path d="M22.5876 16.0312H22.9856V16.3761H22.5876V16.0312Z" fill="black"/>
<path d="M30.0024 10H10V26.8468H17.5287L17.4487 27.0601C17.0521 28.1175 16.0269 28.828 14.8975 28.828H14.8476V30H25.1548V28.828C24.0254 28.828 23.0002 28.1175 22.6036 27.06L22.5236 26.8468H30.0024V10ZM28.8304 11.172V23.3077H11.172V11.172H28.8304ZM21.5062 27.4716C21.7002 27.9887 21.9993 28.4477 22.3735 28.828H17.6788C18.053 28.4477 18.3522 27.9887 18.5461 27.4716L18.7804 26.8468H21.2719L21.5062 27.4716ZM11.172 25.6748V24.4797H28.8304V25.6748H11.172Z" fill="black"/>
</svg>
