<svg width="40" height="40" viewBox="0 0 40 40" fill="none" xmlns="http://www.w3.org/2000/svg">
<path d="M30 10H10V26.8468H17.5278L17.4478 27.0601C17.0513 28.1175 16.0261 28.828 14.8969 28.828H14.847V30H25.153V28.828C24.0237 28.828 22.9986 28.1175 22.6021 27.06L22.5221 26.8468H30V10ZM28.8281 11.172V23.3077H11.1719V11.172H28.8281ZM21.5048 27.4716C21.6987 27.9887 21.9979 28.4477 22.372 28.828H17.6779C18.052 28.4477 18.3512 27.9887 18.5451 27.4716L18.7794 26.8468H21.2705L21.5048 27.4716ZM11.1719 25.6748V24.4797H28.8281V25.6748H11.1719Z" fill="black"/>
<path d="M13.2977 19.7261C13.2977 20.7323 14.1162 21.5508 15.1222 21.5508C16.1282 21.5508 16.9467 20.7323 16.9467 19.7261V18.8655H23.0481V19.7261C23.0481 20.7323 23.8666 21.5508 24.8726 21.5508C25.8786 21.5508 26.6971 20.7323 26.6971 19.7261V17.7716H27.7199V16.5996H26.6971V14.645C26.6971 13.6388 25.8786 12.8203 24.8726 12.8203C23.8666 12.8203 23.0481 13.6388 23.0481 14.645V15.5056H16.9466V14.645C16.9466 13.6388 16.1281 12.8203 15.1221 12.8203C14.1161 12.8203 13.2977 13.6388 13.2977 14.645V16.5996H12.2749V17.7716H13.2977V19.7261ZM24.22 14.645C24.22 14.2851 24.5128 13.9923 24.8726 13.9923C25.2324 13.9923 25.5252 14.2851 25.5252 14.645V19.7261C25.5252 20.086 25.2324 20.3788 24.8726 20.3788C24.5128 20.3788 24.22 20.086 24.22 19.7261V14.645ZM23.0481 16.6776V17.6935H16.9466V16.6776H23.0481ZM14.4696 14.645C14.4696 14.2851 14.7623 13.9923 15.1222 13.9923C15.482 13.9923 15.7748 14.2851 15.7748 14.645V19.7261C15.7748 20.086 15.482 20.3788 15.1222 20.3788C14.7623 20.3788 14.4696 20.086 14.4696 19.7261V14.645Z" fill="black"/>
</svg>
