<svg width="40" height="40" viewBox="0 0 40 40" fill="none" xmlns="http://www.w3.org/2000/svg">
<path fill-rule="evenodd" clip-rule="evenodd" d="M28.264 29.7109H10.9086C10.9012 29.7109 10.894 29.7115 10.8869 29.7125H8.1469C8.06581 29.7125 8 29.7755 8 29.8531C8 29.9307 8.06581 29.9937 8.1469 29.9937H11.1024C11.1098 29.9937 11.117 29.9932 11.1241 29.9922H28.264H28.6299H31.391C31.4721 29.9922 31.5379 29.9292 31.5379 29.8515C31.5379 29.7739 31.4721 29.7109 31.391 29.7109H28.6298H28.264Z" fill="black"/>
<path d="M19.7688 15.8942C20.1152 15.8942 20.4643 15.808 20.7798 15.6316L21.4854 15.7026C21.5103 15.7048 21.5355 15.6967 21.5534 15.6795C21.5712 15.6624 21.5801 15.6385 21.5775 15.6145L21.5034 14.939C21.9633 14.1852 21.8356 13.2323 21.1883 12.6126C20.4057 11.8635 19.1321 11.8635 18.3494 12.6126C17.5668 13.3619 17.5668 14.5809 18.3494 15.33C18.7374 15.7015 19.2504 15.8942 19.7688 15.8942ZM18.4678 12.726C18.8265 12.3826 19.2976 12.211 19.7689 12.211C20.2399 12.211 20.7113 12.3827 21.0699 12.726C21.6694 13.2998 21.7827 14.1854 21.3455 14.8797C21.3361 14.8946 21.332 14.912 21.3339 14.9294L21.4001 15.5329L20.7697 15.4694C20.7518 15.4678 20.7334 15.4716 20.7177 15.4805C19.9925 15.899 19.0673 15.7905 18.4678 15.2168C17.7504 14.5301 17.7504 13.4127 18.4678 12.726Z" fill="black" stroke="black" stroke-width="0.2"/>
<path d="M8.1469 28.9672H31.3916C31.4727 28.9672 31.5385 28.9042 31.5385 28.8265C31.5385 28.7489 31.4727 28.6859 31.3916 28.6859H30.4963V24.9996V18.5614C30.4963 18.4838 30.4305 18.4208 30.3495 18.4208C30.2684 18.4208 30.2026 18.4838 30.2026 18.5614V24.859H29.0099C29.2762 24.6422 29.446 24.3199 29.446 23.9597V22.9199V20.2969C29.446 19.4788 28.8952 18.7833 28.1307 18.5273C28.7912 18.2319 29.251 17.5917 29.251 16.8491C29.251 15.8274 28.3826 14.9961 27.3152 14.9961C26.2477 14.9961 25.3794 15.8273 25.3794 16.8491C25.3794 17.5917 25.8392 18.2319 26.4996 18.5273C26.0682 18.6717 25.7062 18.956 25.4717 19.3239L23.5694 17.9566L24.6852 16.2764L24.9734 15.8423C25.1672 15.5504 25.0768 15.1621 24.7718 14.9766C24.4671 14.7911 24.0613 14.8776 23.8673 15.1695L23.5792 15.6036L21.6894 18.4495C21.6734 18.4734 21.6657 18.5011 21.6666 18.529H21.6665L21.6854 19.1465L21.1848 18.4795C21.1375 18.4165 21.0456 18.4023 20.9798 18.4473L20.5444 18.7466C20.5127 18.7684 20.4914 18.8013 20.4851 18.8381C20.4789 18.8749 20.4881 18.9126 20.5108 18.9429L21.8542 20.7332C21.6117 20.8814 21.45 21.1407 21.45 21.4358C21.45 21.8956 21.8408 22.2698 22.3211 22.2698H25.1843V22.7795H24.3083C23.8273 22.7795 23.3872 23.0501 23.187 23.4688L21.3575 27.2956C21.1228 27.7866 21.2715 28.3526 21.6819 28.6861H17.8564C18.2668 28.3526 18.4156 27.7866 18.1808 27.2956L16.3515 23.4686C16.1513 23.0499 15.7112 22.7793 15.2302 22.7793H14.3542V22.2696H17.2174C17.6976 22.2696 18.0885 21.8955 18.0885 21.4357C18.0885 20.976 17.6977 20.6018 17.2174 20.6018H14.3612L14.3541 20.5954V20.2968C14.3541 19.4787 13.8033 18.7832 13.0387 18.5272C13.6992 18.2319 14.1589 17.5916 14.1589 16.849C14.1589 15.8273 13.2906 14.996 12.2231 14.996C11.1557 14.996 10.2874 15.8272 10.2874 16.849C10.2874 17.5916 10.7471 18.2318 11.4076 18.5272C10.643 18.7832 10.0923 19.4788 10.0923 20.2968V22.9199V23.9596C10.0923 24.3197 10.2621 24.6422 10.5285 24.8589H9.33596V18.5613C9.33596 18.4837 9.27016 18.4207 9.18907 18.4207C9.10798 18.4207 9.04217 18.4837 9.04217 18.5613V24.9995V28.6858H8.1469C8.06581 28.6858 8 28.7488 8 28.8265C8 28.9041 8.06581 28.9672 8.1469 28.9672V28.9672ZM14.3541 28.6859V25.1402H14.4382L15.9381 28.2777C16.0147 28.4378 16.1265 28.5761 16.2622 28.6859H14.3541ZM25.1003 25.1402H25.1844V28.6859H23.2762C23.4119 28.576 23.5237 28.4378 23.6003 28.2777L25.1003 25.1402ZM30.2026 25.1402V28.6859H25.4782V25.1402H28.213H30.2026ZM25.6733 16.849C25.6733 15.9824 26.4098 15.2773 27.3153 15.2773C28.2207 15.2773 28.9573 15.9823 28.9573 16.849C28.9573 17.7157 28.2207 18.4208 27.3153 18.4208C26.4098 18.4208 25.6733 17.7157 25.6733 16.849ZM25.3349 19.577C25.2382 19.7988 25.1843 20.0418 25.1843 20.2969V20.5955L25.1773 20.6019H24.8367C24.8348 20.6004 24.8333 20.5986 24.8314 20.5972L22.7892 19.1294C22.7911 19.1268 22.7936 19.1249 22.7954 19.1223L23.4115 18.1946L25.3349 19.577ZM22.3589 19.0233L21.9804 19.1804L21.9684 18.7857L22.3589 19.0233ZM23.7485 15.8729L24.0535 16.0585L24.3586 16.2441L22.6264 18.8527L22.0163 18.4815L23.7485 15.8729ZM24.1154 15.3202C24.2225 15.1592 24.4464 15.1118 24.6145 15.2138C24.7827 15.3162 24.8325 15.5304 24.7257 15.6914L24.5162 16.0068L24.2112 15.8212L23.9061 15.6356L24.1154 15.3202ZM22.4985 19.2718L24.3488 20.6018H22.7777L21.9504 19.4993L22.4985 19.2718ZM20.8353 18.8929L21.0321 18.7577L22.4159 20.6019H22.3212C22.2565 20.6019 22.1936 20.6092 22.1329 20.6221L20.8353 18.8929ZM21.7439 21.4357C21.7439 21.131 22.003 20.8831 22.3212 20.8831H25.2363C25.2741 20.8831 25.3104 20.8692 25.3378 20.8442L26.9167 19.4009C27.0281 19.299 27.1727 19.2422 27.3287 19.2481C27.4827 19.2515 27.6263 19.3122 27.7329 19.419C27.9526 19.6394 27.9442 19.9898 27.7141 20.2002L25.9252 21.8352C25.8172 21.9339 25.6756 21.9882 25.5266 21.9882H22.3213C22.003 21.9884 21.7439 21.7404 21.7439 21.4357V21.4357ZM25.4782 22.2696H25.5265C25.7515 22.2696 25.9651 22.1876 26.1281 22.0388L27.917 20.4039C28.2642 20.0863 28.277 19.5575 27.9454 19.2251C27.7847 19.0638 27.568 18.9723 27.3354 18.9671C27.1034 18.9647 26.8819 19.0439 26.7137 19.1978L25.4782 20.327V20.2969C25.4782 19.4174 26.2257 18.702 27.1445 18.702H27.4862C28.4049 18.702 29.1524 19.4174 29.1524 20.2969V22.7793H25.4782V22.2696ZM22.0881 28.6041C21.6171 28.3978 21.4093 27.8632 21.6248 27.4124L23.4544 23.5856C23.6069 23.2667 23.9421 23.0606 24.3085 23.0606H25.3314H29.1525V23.9597C29.1525 24.4555 28.7311 24.859 28.2131 24.859H25.0061C24.9486 24.859 24.8964 24.891 24.8725 24.9411L23.3332 28.1607C23.1807 28.4798 22.8452 28.686 22.4784 28.686C22.3433 28.6859 22.2119 28.6584 22.0881 28.6041V28.6041ZM17.2173 20.8831C17.5356 20.8831 17.7946 21.1311 17.7946 21.4357C17.7946 21.7405 17.5356 21.9884 17.2173 21.9884H14.012C13.863 21.9884 13.7213 21.9342 13.6135 21.8355L11.8246 20.2005C11.5943 19.9901 11.5859 19.6397 11.8058 19.4192C11.9123 19.3124 12.0559 19.2518 12.2099 19.2484C12.2145 19.2482 12.2191 19.2482 12.2236 19.2482C12.3728 19.2482 12.5138 19.3022 12.6219 19.4013L14.2008 20.8444C14.2282 20.8695 14.2645 20.8833 14.3023 20.8833H17.2173V20.8831ZM10.5813 16.849C10.5813 15.9824 11.3179 15.2773 12.2233 15.2773C13.1288 15.2773 13.8653 15.9823 13.8653 16.849C13.8653 17.7157 13.1288 18.4208 12.2233 18.4208C11.3179 18.4208 10.5813 17.7157 10.5813 16.849ZM10.3863 20.2969C10.3863 19.4174 11.1337 18.702 12.0525 18.702H12.3941C13.3129 18.702 14.0604 19.4174 14.0604 20.2969V20.327L12.8249 19.1979C12.6568 19.044 12.4388 18.9632 12.2033 18.9671C11.9706 18.9723 11.754 19.0638 11.5933 19.225C11.2617 19.5575 11.2744 20.0863 11.6217 20.4039L13.4106 22.0388C13.5734 22.1876 13.7871 22.2696 14.0121 22.2696H14.0604V22.7793H10.3863V20.2969ZM10.3863 23.9597V23.0606H14.2073H15.2302C15.5966 23.0606 15.9319 23.2666 16.0843 23.5856L17.9139 27.4124C18.1293 27.8632 17.9215 28.3978 17.4507 28.6041C17.3267 28.6584 17.1955 28.6859 17.0605 28.6859C16.6938 28.6859 16.3582 28.4798 16.2057 28.1606L14.6664 24.941C14.6425 24.8909 14.5903 24.8589 14.5328 24.8589H11.3255C10.8076 24.859 10.3863 24.4555 10.3863 23.9597V23.9597ZM9.33596 25.1402H11.3255H14.0603V28.6859H9.33596V25.1402Z" fill="black" stroke="black" stroke-width="0.5"/>
<ellipse cx="18.8881" cy="13.9726" rx="0.244826" ry="0.234352" fill="black"/>
<ellipse cx="19.7697" cy="13.9726" rx="0.244826" ry="0.234352" fill="black"/>
<ellipse cx="20.6513" cy="13.9726" rx="0.244826" ry="0.234352" fill="black"/>
</svg>
